<svg width="45" height="45" viewBox="0 0 45 45" fill="none" xmlns="http://www.w3.org/2000/svg">
<path d="M30 22.5C30 21.0166 29.5601 19.5666 28.736 18.3332C27.9119 17.0999 26.7406 16.1386 25.3701 15.5709C23.9997 15.0032 22.4917 14.8547 21.0368 15.1441C19.582 15.4335 18.2456 16.1478 17.1967 17.1967C16.1478 18.2456 15.4335 19.582 15.1441 21.0368C14.8547 22.4917 15.0032 23.9997 15.5709 25.3701C16.1386 26.7406 17.0999 27.9119 18.3332 28.736C19.5666 29.5601 21.0166 30 22.5 30C24.4884 29.9977 26.3948 29.2068 27.8008 27.8008C29.2068 26.3948 29.9977 24.4884 30 22.5ZM18 22.5C18 21.61 18.2639 20.74 18.7584 19.9999C19.2529 19.2599 19.9557 18.6831 20.7779 18.3425C21.6002 18.002 22.505 17.9128 23.3779 18.0865C24.2508 18.2601 25.0526 18.6887 25.682 19.318C26.3113 19.9474 26.7399 20.7492 26.9135 21.6221C27.0872 22.495 26.9981 23.3998 26.6575 24.2221C26.3169 25.0443 25.7401 25.7472 25.0001 26.2416C24.26 26.7361 23.39 27 22.5 27C21.3069 26.9986 20.1631 26.5241 19.3195 25.6805C18.4759 24.8369 18.0014 23.6931 18 22.5Z" fill="black" fill-opacity="0.65"/>
<path d="M13.5 35.8114L21.4975 45H23.5025L31.5 35.8114V33H13.5V35.8114ZM27.3586 36L22.5 41.5823L17.6414 36H27.3586Z" fill="black" fill-opacity="0.65"/>
<path d="M21.4975 0L13.5 9.18863V12H31.5V9.18863L23.5025 0H21.4975ZM17.6414 9L22.5 3.41775L27.3586 9H17.6414Z" fill="black" fill-opacity="0.65"/>
<path d="M0 21.4975V23.5025L9.18872 31.5H12V13.5H9.18872L0 21.4975ZM9 27.3587L3.41766 22.5L9 17.6413V27.3587Z" fill="black" fill-opacity="0.65"/>
<path d="M35.8113 13.5H33V31.5H35.8113L45 23.5025V21.4975L35.8113 13.5ZM36 27.3587V17.6413L41.5823 22.5L36 27.3587Z" fill="black" fill-opacity="0.65"/>
</svg>
