<svg width="36" height="36" viewBox="0 0 36 36" fill="none" xmlns="http://www.w3.org/2000/svg">
<path fill-rule="evenodd" clip-rule="evenodd" d="M20.0002 19.9999V33.9999C20.0002 34.5303 19.7895 35.039 19.4145 35.4141C19.0394 35.7892 18.5307 35.9999 18.0002 35.9999C17.4698 35.9999 16.9611 35.7892 16.586 35.4141C16.211 35.039 16.0002 34.5303 16.0002 33.9999V19.9999H2.00024C1.46981 19.9999 0.961103 19.7892 0.58603 19.4141C0.210958 19.039 0.000244141 18.5303 0.000244141 17.9999C0.000244141 17.4694 0.210958 16.9607 0.58603 16.5857C0.961103 16.2106 1.46981 15.9999 2.00024 15.9999H16.0002V1.99988C16.0002 1.46944 16.211 0.960737 16.586 0.585664C16.9611 0.210592 17.4698 -0.00012207 18.0002 -0.00012207C18.5307 -0.00012207 19.0394 0.210592 19.4145 0.585664C19.7895 0.960737 20.0002 1.46944 20.0002 1.99988V15.9999H34.0002C34.5307 15.9999 35.0394 16.2106 35.4145 16.5857C35.7895 16.9607 36.0002 17.4694 36.0002 17.9999C36.0002 18.5303 35.7895 19.039 35.4145 19.4141C35.0394 19.7892 34.5307 19.9999 34.0002 19.9999H20.0002Z" fill="black"/>
</svg>
