<svg width="42" height="42" viewBox="0 0 42 42" fill="none" xmlns="http://www.w3.org/2000/svg">
<path d="M21 0C9.429 0 0 9.429 0 21C0 32.571 9.429 42 21 42C32.571 42 42 32.571 42 21C42 9.429 32.571 0 21 0ZM21 37.8C11.739 37.8 4.2 30.261 4.2 21C4.2 11.739 11.739 4.2 21 4.2C30.261 4.2 37.8 11.739 37.8 21C37.8 30.261 30.261 37.8 21 37.8ZM27.3 21C27.3 24.486 24.486 27.3 21 27.3C17.514 27.3 14.7 24.486 14.7 21C14.7 17.514 17.514 14.7 21 14.7C24.486 14.7 27.3 17.514 27.3 21Z" fill="black" fill-opacity="0.55"/>
</svg>
