<svg width="42" height="43" viewBox="0 0 42 43" fill="none" xmlns="http://www.w3.org/2000/svg">
<path d="M28.4029 6.4683L13.5971 6.4683L21.0504 0.111572L28.4029 6.4683ZM13.5971 36.4233L28.4029 36.4233L21.0504 42.78L13.5971 36.4233ZM7.05036 24.4935L15.2086 24.4935L11.0791 14.8278L7.05036 24.4935ZM9.36691 10.7351L12.8921 10.7351L22.259 32.1564L18.4317 32.1564L16.4173 27.5413L5.74101 27.5413L3.82734 32.1564L-1.3449e-08 32.1564L9.36691 10.7351ZM28.705 29.1958L42 29.1958L42 32.1564L23.4676 32.1564L23.4676 29.7182L36.3597 13.7829L23.5683 13.7829L23.5683 10.7351L41.5971 10.7351L41.5971 13.0863L28.705 29.1958Z" fill="black" fill-opacity="0.6"/>
</svg>
