<svg width="42" height="42" viewBox="0 0 42 42" fill="none" xmlns="http://www.w3.org/2000/svg">
<path d="M20.979 0C9.387 0 0 9.408 0 21C0 32.592 9.387 42 20.979 42C32.592 42 42 32.592 42 21C42 9.408 32.592 0 20.979 0ZM13.65 12.6C15.393 12.6 16.8 14.007 16.8 15.75C16.8 17.493 15.393 18.9 13.65 18.9C11.907 18.9 10.5 17.493 10.5 15.75C10.5 14.007 11.907 12.6 13.65 12.6ZM21 33.6C16.212 33.6 12.138 30.114 10.5 25.2H31.5C29.862 30.114 25.788 33.6 21 33.6ZM28.35 18.9C26.607 18.9 25.2 17.493 25.2 15.75C25.2 14.007 26.607 12.6 28.35 12.6C30.093 12.6 31.5 14.007 31.5 15.75C31.5 17.493 30.093 18.9 28.35 18.9Z" fill="black" fill-opacity="0.5"/>
</svg>
