<svg width="38" height="38" viewBox="0 0 38 38" fill="none" xmlns="http://www.w3.org/2000/svg">
<path d="M10.5554 12.6667C11.1153 12.6667 11.6523 12.4443 12.0482 12.0483C12.4441 11.6524 12.6666 11.1155 12.6666 10.5556C12.6666 9.99566 12.4441 9.45869 12.0482 9.06278C11.6523 8.66687 11.1153 8.44445 10.5554 8.44445C9.99555 8.44445 9.45858 8.66687 9.06267 9.06278C8.66676 9.45869 8.44434 9.99566 8.44434 10.5556C8.44434 11.1155 8.66676 11.6524 9.06267 12.0483C9.45858 12.4443 9.99555 12.6667 10.5554 12.6667Z" fill="black" fill-opacity="0.5"/>
<path d="M12.6668 25.3333C12.1069 25.3333 11.5699 25.5558 11.174 25.9517C10.7781 26.3476 10.5557 26.8845 10.5557 27.4444C10.5557 28.0043 10.7781 28.5413 11.174 28.9372C11.5699 29.3331 12.1069 29.5556 12.6668 29.5556H25.3334C25.8933 29.5556 26.4303 29.3331 26.8262 28.9372C27.2221 28.5413 27.4446 28.0043 27.4446 27.4444C27.4446 26.8845 27.2221 26.3476 26.8262 25.9517C26.4303 25.5558 25.8933 25.3333 25.3334 25.3333H12.6668Z" fill="black" fill-opacity="0.5"/>
<path d="M12.6666 19C12.6666 19.5599 12.4441 20.0969 12.0482 20.4928C11.6523 20.8887 11.1153 21.1111 10.5554 21.1111C9.99555 21.1111 9.45858 20.8887 9.06267 20.4928C8.66676 20.0969 8.44434 19.5599 8.44434 19C8.44434 18.4401 8.66676 17.9031 9.06267 17.5072C9.45858 17.1113 9.99555 16.8889 10.5554 16.8889C11.1153 16.8889 11.6523 17.1113 12.0482 17.5072C12.4441 17.9031 12.6666 18.4401 12.6666 19Z" fill="black" fill-opacity="0.5"/>
<path d="M18.9998 12.6667C19.5597 12.6667 20.0967 12.4443 20.4926 12.0483C20.8885 11.6524 21.1109 11.1155 21.1109 10.5556C21.1109 9.99566 20.8885 9.45869 20.4926 9.06278C20.0967 8.66687 19.5597 8.44445 18.9998 8.44445C18.4399 8.44445 17.9029 8.66687 17.507 9.06278C17.1111 9.45869 16.8887 9.99566 16.8887 10.5556C16.8887 11.1155 17.1111 11.6524 17.507 12.0483C17.9029 12.4443 18.4399 12.6667 18.9998 12.6667Z" fill="black" fill-opacity="0.5"/>
<path d="M21.1109 19C21.1109 19.5599 20.8885 20.0969 20.4926 20.4928C20.0967 20.8887 19.5597 21.1111 18.9998 21.1111C18.4399 21.1111 17.9029 20.8887 17.507 20.4928C17.1111 20.0969 16.8887 19.5599 16.8887 19C16.8887 18.4401 17.1111 17.9031 17.507 17.5072C17.9029 17.1113 18.4399 16.8889 18.9998 16.8889C19.5597 16.8889 20.0967 17.1113 20.4926 17.5072C20.8885 17.9031 21.1109 18.4401 21.1109 19Z" fill="black" fill-opacity="0.5"/>
<path d="M27.4441 12.6667C28.004 12.6667 28.541 12.4443 28.9369 12.0483C29.3328 11.6524 29.5552 11.1155 29.5552 10.5556C29.5552 9.99566 29.3328 9.45869 28.9369 9.06278C28.541 8.66687 28.004 8.44445 27.4441 8.44445C26.8842 8.44445 26.3472 8.66687 25.9513 9.06278C25.5554 9.45869 25.333 9.99566 25.333 10.5556C25.333 11.1155 25.5554 11.6524 25.9513 12.0483C26.3472 12.4443 26.8842 12.6667 27.4441 12.6667Z" fill="black" fill-opacity="0.5"/>
<path d="M29.5552 19C29.5552 19.5599 29.3328 20.0969 28.9369 20.4928C28.541 20.8887 28.004 21.1111 27.4441 21.1111C26.8842 21.1111 26.3472 20.8887 25.9513 20.4928C25.5554 20.0969 25.333 19.5599 25.333 19C25.333 18.4401 25.5554 17.9031 25.9513 17.5072C26.3472 17.1113 26.8842 16.8889 27.4441 16.8889C28.004 16.8889 28.541 17.1113 28.9369 17.5072C29.3328 17.9031 29.5552 18.4401 29.5552 19Z" fill="black" fill-opacity="0.5"/>
<path fill-rule="evenodd" clip-rule="evenodd" d="M0 6.33333C0 4.65363 0.66726 3.04272 1.85499 1.85499C3.04272 0.66726 4.65363 0 6.33333 0H31.6667C33.3464 0 34.9573 0.66726 36.145 1.85499C37.3327 3.04272 38 4.65363 38 6.33333V31.6667C38 33.3464 37.3327 34.9573 36.145 36.145C34.9573 37.3327 33.3464 38 31.6667 38H6.33333C4.65363 38 3.04272 37.3327 1.85499 36.145C0.66726 34.9573 0 33.3464 0 31.6667V6.33333ZM6.33333 4.22222H31.6667C32.2266 4.22222 32.7635 4.44464 33.1595 4.84055C33.5554 5.23646 33.7778 5.77343 33.7778 6.33333V31.6667C33.7778 32.2266 33.5554 32.7635 33.1595 33.1595C32.7635 33.5554 32.2266 33.7778 31.6667 33.7778H6.33333C5.77343 33.7778 5.23646 33.5554 4.84055 33.1595C4.44464 32.7635 4.22222 32.2266 4.22222 31.6667V6.33333C4.22222 5.77343 4.44464 5.23646 4.84055 4.84055C5.23646 4.44464 5.77343 4.22222 6.33333 4.22222Z" fill="black" fill-opacity="0.5"/>
</svg>
