<svg width="28" height="43" viewBox="0 0 28 43" fill="none" xmlns="http://www.w3.org/2000/svg">
<path d="M24.6802 18.8557V23.3557C24.6802 26.1405 23.5739 28.8112 21.6048 30.7803C19.6357 32.7495 16.9649 33.8557 14.1802 33.8557C11.3954 33.8557 8.72469 32.7495 6.75556 30.7803C4.78642 28.8112 3.68018 26.1405 3.68018 23.3557V18.8557H0.680176V23.3557C0.681751 26.6753 1.90636 29.8779 4.12001 32.3517C6.33365 34.8254 9.38114 36.3969 12.6802 36.7657V39.8557H6.68018V42.8557H21.6802V39.8557H15.6802V36.7657C18.9792 36.3969 22.0267 34.8254 24.2403 32.3517C26.454 29.8779 27.6786 26.6753 27.6802 23.3557V18.8557H24.6802Z" fill="black" fill-opacity="0.5"/>
<path d="M14.1802 30.8557C16.1693 30.8557 18.077 30.0655 19.4835 28.659C20.89 27.2525 21.6802 25.3448 21.6802 23.3557V8.35571C21.6802 6.36659 20.89 4.45893 19.4835 3.05241C18.077 1.64589 16.1693 0.855713 14.1802 0.855713C12.1911 0.855713 10.2834 1.64589 8.87687 3.05241C7.47035 4.45893 6.68018 6.36659 6.68018 8.35571V23.3557C6.68018 25.3448 7.47035 27.2525 8.87687 28.659C10.2834 30.0655 12.1911 30.8557 14.1802 30.8557Z" fill="black" fill-opacity="0.5"/>
</svg>
