<svg width="43" height="34" viewBox="0 0 43 34" fill="none" xmlns="http://www.w3.org/2000/svg">
<path d="M38.7 0H4.3C1.935 0 0 1.9125 0 4.25V29.75C0 32.0875 1.935 34 4.3 34H38.7C41.065 34 43 32.0875 43 29.75V4.25C43 1.9125 41.065 0 38.7 0ZM12.126 23.375H9.6535V13.8125L7.7185 15.215L6.4715 13.3238L10.2555 10.625H12.126V23.375ZM24.725 23.375H16.3615V21.2075C18.662 18.9337 20.167 17.4462 20.941 16.6388C21.801 15.7463 22.102 15.1725 22.102 14.3863C22.102 13.5363 21.4355 12.8563 20.3605 12.8563C19.2425 12.8563 18.6405 13.685 18.4255 14.3863L16.254 13.4938C16.2755 13.4513 16.641 11.8787 18.404 11.05C19.8875 10.3487 21.586 10.625 22.5965 11.1137C24.4455 12.0487 24.553 13.7487 24.553 14.2587C24.553 15.6187 23.8865 16.9362 22.575 18.2113C22.0375 18.7425 21.027 19.72 19.565 21.165L19.6295 21.2712H24.725V23.375ZM36.0125 21.5687C35.8405 21.845 34.8085 23.375 32.2285 23.375C32.1425 23.375 28.7885 23.545 27.821 20.1663L30.0355 19.295C30.1 19.5075 30.444 21.1225 32.2285 21.1225C33.11 21.1225 34.142 20.5275 34.142 19.4862C34.142 18.3175 33.11 17.8075 31.906 17.8075H30.831V15.6825H31.82C32.5295 15.6825 33.712 15.385 33.712 14.1525C33.712 13.3237 33.0455 12.7713 32.0995 12.7713C31.0245 12.7713 30.5085 13.4512 30.272 14.1312L28.1435 13.26C28.38 12.5375 29.412 10.625 32.121 10.625C34.4645 10.625 35.432 11.985 35.604 12.2188C36.3135 13.2812 36.206 14.6837 35.647 15.555C35.3245 16.0225 34.959 16.3625 34.529 16.575V16.7237C35.131 16.9575 35.6255 17.3188 35.991 17.8288C36.7865 18.9338 36.7005 20.5275 36.0125 21.5687Z" fill="black" fill-opacity="0.5"/>
</svg>
