<svg width="38" height="38" viewBox="0 0 38 38" fill="none" xmlns="http://www.w3.org/2000/svg">
<path d="M34.863 18.9951C34.863 16.9175 36.1594 15.1466 38 14.4343C37.5151 12.4061 36.7135 10.5066 35.6547 8.78521C35.0214 9.06222 34.3484 9.21062 33.6656 9.21062C32.4188 9.21062 31.1719 8.73575 30.212 7.78599C28.7375 6.3119 28.4109 4.14527 29.2026 2.3447C27.4906 1.28612 25.5807 0.48477 23.562 0C22.8594 1.83025 21.0781 3.13616 19 3.13616C16.9219 3.13616 15.1406 1.83025 14.438 0C12.4094 0.48477 10.5094 1.28612 8.7875 2.3447C9.58906 4.13538 9.25261 6.3119 7.77813 7.78599C6.82813 8.73575 5.57135 9.21062 4.32448 9.21062C3.64167 9.21062 2.96875 9.07212 2.33542 8.78521C1.28646 10.5165 0.484896 12.416 0 14.4442C1.83073 15.1466 3.13698 16.9175 3.13698 19.0049C3.13698 21.0825 1.84062 22.8534 0.00989568 23.5657C0.494792 25.5939 1.29635 27.4934 2.35521 29.2148C2.98854 28.9378 3.66146 28.7993 4.33438 28.7993C5.58125 28.7993 6.82812 29.2741 7.78802 30.2239C9.2526 31.6881 9.58906 33.8646 8.7974 35.6553C10.5193 36.7139 12.4292 37.5152 14.4479 38C15.1505 36.1698 16.9219 34.8737 19 34.8737C21.0781 34.8737 22.8495 36.1698 23.5521 38C25.5807 37.5152 27.4807 36.7139 29.2026 35.6553C28.4109 33.8646 28.7474 31.698 30.212 30.2239C31.162 29.2741 32.4089 28.7993 33.6656 28.7993C34.3385 28.7993 35.0214 28.9378 35.6448 29.2148C36.7036 27.4934 37.5052 25.584 37.9901 23.5657C36.1693 22.8534 34.863 21.0825 34.863 18.9951ZM19.0891 26.8998C14.7052 26.8998 11.1724 23.3481 11.1724 18.9852C11.1724 14.6222 14.7052 11.0706 19.0891 11.0706C23.4729 11.0706 27.0057 14.6222 27.0057 18.9852C27.0057 23.3481 23.4729 26.8998 19.0891 26.8998Z" fill="black" fill-opacity="0.5"/>
</svg>
