<svg width="40" height="40" viewBox="0 0 40 40" fill="none" xmlns="http://www.w3.org/2000/svg">
<path d="M14.1 0.000207821C15.962 -0.0194509 17.7 0.840549 18.84 2.30055L20.6 4.64055C21.16 5.34055 22 5.76055 22.9 5.76055H29.04C36.42 5.76055 40.02 9.70055 40.0001 17.7805V27.5205C40.0001 35.2405 35.24 40.0005 27.5 40.0005H12.48C4.78 40.0005 0 35.2405 0 27.5005V12.4805C0 4.20055 3.68 0.000207821 10.94 0.000207821H14.1ZM29.26 23.5805H10.74C9.9 23.5805 9.24 24.2405 9.24 25.0805C9.24 25.9005 9.9 26.5805 10.74 26.5805H29.26C30.08 26.5805 30.74 25.9005 30.74 25.0805C30.74 24.2405 30.08 23.5805 29.26 23.5805Z" fill="black" fill-opacity="0.5"/>
</svg>
