<svg width="48" height="27" viewBox="0 0 48 27" fill="none" xmlns="http://www.w3.org/2000/svg">
<path d="M0 6C0 4.4087 0.632141 2.88258 1.75736 1.75736C2.88258 0.632141 4.4087 0 6 0H42C43.5913 0 45.1174 0.632141 46.2426 1.75736C47.3679 2.88258 48 4.4087 48 6V21C48 22.5913 47.3679 24.1174 46.2426 25.2426C45.1174 26.3679 43.5913 27 42 27H6C4.4087 27 2.88258 26.3679 1.75736 25.2426C0.632141 24.1174 0 22.5913 0 21V6ZM39 6.75V8.25C39 8.664 39.336 9 39.75 9H41.25C41.4489 9 41.6397 8.92098 41.7803 8.78033C41.921 8.63968 42 8.44891 42 8.25V6.75C42 6.55109 41.921 6.36032 41.7803 6.21967C41.6397 6.07902 41.4489 6 41.25 6H39.75C39.5511 6 39.3603 6.07902 39.2197 6.21967C39.079 6.36032 39 6.55109 39 6.75ZM6.75 12C6.55109 12 6.36032 12.079 6.21967 12.2197C6.07902 12.3603 6 12.5511 6 12.75V14.25C6 14.664 6.336 15 6.75 15H8.25C8.44891 15 8.63968 14.921 8.78033 14.7803C8.92098 14.6397 9 14.4489 9 14.25V12.75C9 12.5511 8.92098 12.3603 8.78033 12.2197C8.63968 12.079 8.44891 12 8.25 12H6.75ZM12 12.75V14.25C12 14.664 12.336 15 12.75 15H14.25C14.4489 15 14.6397 14.921 14.7803 14.7803C14.921 14.6397 15 14.4489 15 14.25V12.75C15 12.5511 14.921 12.3603 14.7803 12.2197C14.6397 12.079 14.4489 12 14.25 12H12.75C12.5511 12 12.3603 12.079 12.2197 12.2197C12.079 12.3603 12 12.5511 12 12.75ZM18.75 12C18.5511 12 18.3603 12.079 18.2197 12.2197C18.079 12.3603 18 12.5511 18 12.75V14.25C18 14.664 18.336 15 18.75 15H20.25C20.4489 15 20.6397 14.921 20.7803 14.7803C20.921 14.6397 21 14.4489 21 14.25V12.75C21 12.5511 20.921 12.3603 20.7803 12.2197C20.6397 12.079 20.4489 12 20.25 12H18.75ZM24 12.75V14.25C24 14.664 24.336 15 24.75 15H26.25C26.4489 15 26.6397 14.921 26.7803 14.7803C26.921 14.6397 27 14.4489 27 14.25V12.75C27 12.5511 26.921 12.3603 26.7803 12.2197C26.6397 12.079 26.4489 12 26.25 12H24.75C24.5511 12 24.3603 12.079 24.2197 12.2197C24.079 12.3603 24 12.5511 24 12.75V12.75ZM39.75 12C39.5511 12 39.3603 12.079 39.2197 12.2197C39.079 12.3603 39 12.5511 39 12.75V14.25C39 14.664 39.336 15 39.75 15H41.25C41.4489 15 41.6397 14.921 41.7803 14.7803C41.921 14.6397 42 14.4489 42 14.25V12.75C42 12.5511 41.921 12.3603 41.7803 12.2197C41.6397 12.079 41.4489 12 41.25 12H39.75ZM39.75 18C39.5511 18 39.3603 18.079 39.2197 18.2197C39.079 18.3603 39 18.5511 39 18.75V20.25C39 20.664 39.336 21 39.75 21H41.25C41.4489 21 41.6397 20.921 41.7803 20.7803C41.921 20.6397 42 20.4489 42 20.25V18.75C42 18.5511 41.921 18.3603 41.7803 18.2197C41.6397 18.079 41.4489 18 41.25 18H39.75ZM30.75 12C30.5511 12 30.3603 12.079 30.2197 12.2197C30.079 12.3603 30 12.5511 30 12.75V14.25C30 14.664 30.336 15 30.75 15H35.25C35.4489 15 35.6397 14.921 35.7803 14.7803C35.921 14.6397 36 14.4489 36 14.25V12.75C36 12.5511 35.921 12.3603 35.7803 12.2197C35.6397 12.079 35.4489 12 35.25 12H30.75ZM33 18.75V20.25C33 20.664 33.336 21 33.75 21H35.25C35.4489 21 35.6397 20.921 35.7803 20.7803C35.921 20.6397 36 20.4489 36 20.25V18.75C36 18.5511 35.921 18.3603 35.7803 18.2197C35.6397 18.079 35.4489 18 35.25 18H33.75C33.5511 18 33.3603 18.079 33.2197 18.2197C33.079 18.3603 33 18.5511 33 18.75ZM33.75 6C33.5511 6 33.3603 6.07902 33.2197 6.21967C33.079 6.36032 33 6.55109 33 6.75V8.25C33 8.664 33.336 9 33.75 9H35.25C35.4489 9 35.6397 8.92098 35.7803 8.78033C35.921 8.63968 36 8.44891 36 8.25V6.75C36 6.55109 35.921 6.36032 35.7803 6.21967C35.6397 6.07902 35.4489 6 35.25 6H33.75ZM27 6.75V8.25C27 8.664 27.336 9 27.75 9H29.25C29.4489 9 29.6397 8.92098 29.7803 8.78033C29.921 8.63968 30 8.44891 30 8.25V6.75C30 6.55109 29.921 6.36032 29.7803 6.21967C29.6397 6.07902 29.4489 6 29.25 6H27.75C27.5511 6 27.3603 6.07902 27.2197 6.21967C27.079 6.36032 27 6.55109 27 6.75ZM21.75 6C21.5511 6 21.3603 6.07902 21.2197 6.21967C21.079 6.36032 21 6.55109 21 6.75V8.25C21 8.664 21.336 9 21.75 9H23.25C23.4489 9 23.6397 8.92098 23.7803 8.78033C23.921 8.63968 24 8.44891 24 8.25V6.75C24 6.55109 23.921 6.36032 23.7803 6.21967C23.6397 6.07902 23.4489 6 23.25 6H21.75ZM15 6.75V8.25C15 8.664 15.336 9 15.75 9H17.25C17.4489 9 17.6397 8.92098 17.7803 8.78033C17.921 8.63968 18 8.44891 18 8.25V6.75C18 6.55109 17.921 6.36032 17.7803 6.21967C17.6397 6.07902 17.4489 6 17.25 6H15.75C15.5511 6 15.3603 6.07902 15.2197 6.21967C15.079 6.36032 15 6.55109 15 6.75ZM6.75 6C6.55109 6 6.36032 6.07902 6.21967 6.21967C6.07902 6.36032 6 6.55109 6 6.75V8.25C6 8.664 6.336 9 6.75 9H11.25C11.4489 9 11.6397 8.92098 11.7803 8.78033C11.921 8.63968 12 8.44891 12 8.25V6.75C12 6.55109 11.921 6.36032 11.7803 6.21967C11.6397 6.07902 11.4489 6 11.25 6H6.75ZM6 18.75V20.25C6 20.664 6.336 21 6.75 21H8.25C8.44891 21 8.63968 20.921 8.78033 20.7803C8.92098 20.6397 9 20.4489 9 20.25V18.75C9 18.5511 8.92098 18.3603 8.78033 18.2197C8.63968 18.079 8.44891 18 8.25 18H6.75C6.55109 18 6.36032 18.079 6.21967 18.2197C6.07902 18.3603 6 18.5511 6 18.75ZM12.75 18C12.5511 18 12.3603 18.079 12.2197 18.2197C12.079 18.3603 12 18.5511 12 18.75V20.25C12 20.664 12.336 21 12.75 21H29.25C29.4489 21 29.6397 20.921 29.7803 20.7803C29.921 20.6397 30 20.4489 30 20.25V18.75C30 18.5511 29.921 18.3603 29.7803 18.2197C29.6397 18.079 29.4489 18 29.25 18H12.75Z" fill="black" fill-opacity="0.5"/>
</svg>
