<svg width="39" height="39" viewBox="0 0 39 39" fill="none" xmlns="http://www.w3.org/2000/svg">
<path d="M36 0H3C2.20459 0.000794215 1.44199 0.31712 0.879557 0.879557C0.31712 1.44199 0.000794215 2.20459 0 3V36C0.000794215 36.7954 0.31712 37.558 0.879557 38.1204C1.44199 38.6829 2.20459 38.9992 3 39H36C36.7954 38.9992 37.558 38.6829 38.1204 38.1204C38.6829 37.558 38.9992 36.7954 39 36V3C38.9992 2.20459 38.6829 1.44199 38.1204 0.879557C37.558 0.31712 36.7954 0.000794215 36 0ZM24 9H15V3H24V9ZM24 12V18H15V12H24ZM12 12V18H3V12H12ZM12 21V27H3V21H12ZM15 21H24V27H15V21ZM27 18V12H36V18H27ZM3 30H12V36H3V30ZM27 36V30H36V36H27Z" fill="black" fill-opacity="0.5"/>
</svg>
