<svg width="42" height="43" viewBox="0 0 42 43" fill="none" xmlns="http://www.w3.org/2000/svg">
<path d="M41.0075 3.45976L41.1254 26.5026C41.1291 27.2227 40.8786 27.8308 40.3739 28.3268C39.8692 28.8227 39.2698 29.0725 38.5757 29.0761L33.4501 29.1023C32.7293 29.106 32.1207 28.8624 31.6243 28.3715C31.1279 27.8807 30.8778 27.2752 30.8742 26.5551L30.7562 3.51224C30.7525 2.79215 30.9963 2.18415 31.4877 1.68822C31.979 1.1923 32.5851 0.942495 33.3059 0.938805L38.4315 0.912565C39.1256 0.909012 39.7276 1.15263 40.2373 1.64343C40.7471 2.13423 41.0038 2.73967 41.0075 3.45976ZM33.3321 6.05944L33.4239 23.9817C33.4274 24.6751 33.6774 25.2739 34.1739 25.7781C34.6704 26.2823 35.2723 26.5326 35.9798 26.529C36.6872 26.5254 37.2933 26.2689 37.7979 25.7596C38.3025 25.2502 38.5531 24.6489 38.5495 23.9554L38.4578 6.0332C38.4541 5.31311 38.1974 4.70767 37.6876 4.21687C37.1779 3.72607 36.5693 3.48248 35.8618 3.48611C35.1544 3.48973 34.555 3.7395 34.0636 4.23542C33.5723 4.73134 33.3284 5.33935 33.3321 6.05944ZM27.8138 7.60792C28.0823 7.89992 28.2175 8.24595 28.2196 8.646C28.2216 9.04605 28.0899 9.39344 27.8245 9.68818L19.8474 15.93C19.582 16.2247 19.2757 16.3729 18.9287 16.3747C18.5816 16.3765 18.2738 16.2314 18.0054 15.9394L17.9831 11.5788C15.7436 12.1771 13.9078 13.3933 12.4755 15.2276C11.0433 17.0619 10.3332 19.1658 10.3454 21.5394L10.3585 24.0998C10.3621 24.7932 10.1115 25.3945 9.60688 25.9039C9.10225 26.4132 8.49621 26.6697 7.78877 26.6733C7.08132 26.6769 6.47936 26.4266 5.98289 25.9224C5.48642 25.4182 5.23641 24.8194 5.23286 24.126L5.21976 21.5657C5.20037 17.7785 6.40475 14.4585 8.83289 11.6057C11.261 8.75282 14.3022 7.01032 17.9564 6.37819L17.9312 1.45758C18.1967 1.16284 18.503 1.01459 18.85 1.01281C19.1971 1.01103 19.5048 1.15615 19.7733 1.44815L27.8138 7.60792ZM28.3507 34.2492L28.3769 39.3698C28.3806 40.0899 28.1301 40.698 27.6254 41.1939C27.1207 41.6899 26.5213 41.9397 25.8272 41.9433L2.76179 42.0613C2.041 42.065 1.4324 41.8214 0.936001 41.3306C0.439598 40.8397 0.189554 40.2342 0.185868 39.5141L0.159653 34.3935C0.156104 33.7001 0.39997 33.0987 0.891252 32.5895C1.38253 32.0802 1.98857 31.8238 2.70937 31.8201L25.7747 31.702C26.4955 31.6983 27.1041 31.9419 27.6005 32.4328C28.0969 32.9236 28.347 33.5291 28.3507 34.2492Z" fill="black" fill-opacity="0.5"/>
</svg>
