<svg width="425" height="425" viewBox="0 0 425 425" fill="none" xmlns="http://www.w3.org/2000/svg">
<path d="M181.161 106.066L181.055 143.507L143.613 143.613L143.507 181.055L106.066 181.161V106.066H181.161ZM318.198 181.161L280.757 181.055L280.651 143.613L243.209 143.507L243.103 106.066L318.198 106.066L318.198 181.161ZM243.103 318.198L243.209 280.757L280.651 280.651L280.757 243.209L318.198 243.103L318.198 318.198L243.103 318.198ZM106.066 243.103L143.507 243.209L143.613 280.651L181.055 280.757L181.161 318.198H106.066V243.103Z" fill="black" fill-opacity="0.55"/>
<path d="M243.953 243.951C261.527 226.377 261.527 197.885 243.953 180.311C226.379 162.738 197.887 162.738 180.313 180.311C162.74 197.885 162.74 226.377 180.313 243.951C197.887 261.525 226.379 261.525 243.953 243.951Z" fill="black" fill-opacity="0.65"/>
</svg>
