<svg width="42" height="42" viewBox="0 0 42 42" fill="none" xmlns="http://www.w3.org/2000/svg">
<path d="M21 0C9.40333 0 0 9.40333 0 21C0 32.5967 9.40333 42 21 42C22.9367 42 24.5 40.4367 24.5 38.5C24.5 37.59 24.15 36.7733 23.59 36.1433C23.0533 35.5367 22.7033 34.72 22.7033 33.8333C22.7033 31.8967 24.2667 30.3333 26.2033 30.3333H30.3333C36.7733 30.3333 42 25.1067 42 18.6667C42 8.35333 32.5967 0 21 0ZM8.16667 21C6.23 21 4.66667 19.4367 4.66667 17.5C4.66667 15.5633 6.23 14 8.16667 14C10.1033 14 11.6667 15.5633 11.6667 17.5C11.6667 19.4367 10.1033 21 8.16667 21ZM15.1667 11.6667C13.23 11.6667 11.6667 10.1033 11.6667 8.16667C11.6667 6.23 13.23 4.66667 15.1667 4.66667C17.1033 4.66667 18.6667 6.23 18.6667 8.16667C18.6667 10.1033 17.1033 11.6667 15.1667 11.6667ZM26.8333 11.6667C24.8967 11.6667 23.3333 10.1033 23.3333 8.16667C23.3333 6.23 24.8967 4.66667 26.8333 4.66667C28.77 4.66667 30.3333 6.23 30.3333 8.16667C30.3333 10.1033 28.77 11.6667 26.8333 11.6667ZM33.8333 21C31.8967 21 30.3333 19.4367 30.3333 17.5C30.3333 15.5633 31.8967 14 33.8333 14C35.77 14 37.3333 15.5633 37.3333 17.5C37.3333 19.4367 35.77 21 33.8333 21Z" fill="black" fill-opacity="0.5"/>
</svg>
